<?xml version="1.0" encoding="UTF-8" standalone="no"?>
<!-- Created with Inkscape (http://www.inkscape.org/) -->

<svg
   xmlns:dc="http://purl.org/dc/elements/1.1/"
   xmlns:cc="http://creativecommons.org/ns#"
   xmlns:rdf="http://www.w3.org/1999/02/22-rdf-syntax-ns#"
   xmlns:svg="http://www.w3.org/2000/svg"
   xmlns="http://www.w3.org/2000/svg"
   xmlns:sodipodi="http://sodipodi.sourceforge.net/DTD/sodipodi-0.dtd"
   xmlns:inkscape="http://www.inkscape.org/namespaces/inkscape"
   width="29.126984mm"
   height="96.002357mm"
   viewBox="0 0 29.126983 96.002357"
   version="1.1"
   id="svg8"
   inkscape:version="0.92.5 (2060ec1f9f, 2020-04-08)"
   sodipodi:docname="bottle.svg">
  <defs
     id="defs2" />
  <sodipodi:namedview
     id="base"
     pagecolor="#ffffff"
     bordercolor="#666666"
     borderopacity="1.0"
     inkscape:pageopacity="0.0"
     inkscape:pageshadow="2"
     inkscape:zoom="11.242424"
     inkscape:cx="79.30131"
     inkscape:cy="207.70215"
     inkscape:document-units="mm"
     inkscape:current-layer="layer1"
     showgrid="false"
     inkscape:window-width="1528"
     inkscape:window-height="836"
     inkscape:window-x="72"
     inkscape:window-y="27"
     inkscape:window-maximized="1"
     showguides="true"
     inkscape:guide-bbox="true"
     fit-margin-top="0"
     fit-margin-left="0"
     fit-margin-right="0"
     fit-margin-bottom="0">
    <sodipodi:guide
       position="61.249939,54.33969"
       orientation="1,0"
       id="guide821"
       inkscape:locked="false" />
  </sodipodi:namedview>
  <metadata
     id="metadata5">
    <rdf:RDF>
      <cc:Work
         rdf:about="">
        <dc:format>image/svg+xml</dc:format>
        <dc:type
           rdf:resource="http://purl.org/dc/dcmitype/StillImage" />
        <dc:title></dc:title>
      </cc:Work>
    </rdf:RDF>
  </metadata>
  <g
     inkscape:label="Calque 1"
     inkscape:groupmode="layer"
     id="layer1"
     transform="translate(-79.369537,-36.010523)">
    <path
       style="fill:#e08c3c;fill-opacity:1;stroke:none;stroke-width:1.88976383;stroke-linecap:butt;stroke-linejoin:miter;stroke-miterlimit:4;stroke-dasharray:none;stroke-opacity:1"
       d="M 36.923828,0 V 55.337891 C 13.02772,64.141722 0.0390625,85.522893 0.0390625,99.986328 V 215.06445 H 22.363281 c 20.12304,8.17499 18.86535,30.81335 0,39.61719 H 0.0390625 v 33.95898 H 22.363281 c 17.607659,9.43269 17.607659,30.18444 0,38.98829 H 0.0390625 v 21.69531 c -0.62884535,8.80384 6.6021143,13.51953 12.2617185,13.51953 h 86.152344 c 8.803845,0 11.632815,-7.23108 11.632815,-13.51953 V 180.16406 H 85.900391 c -15.813891,-4.08562 -16.349968,-34.8668 0,-39.26871 H 110.08594 V 99.986328 c 0,-10.690363 -13.133134,-36.473452 -36.400393,-44.648437 V 0 Z m 18.115234,71.958984 c 4.116103,0 7.429688,3.370878 7.429688,7.558594 V 226.32227 c 0,4.18771 -3.313585,7.55859 -7.429688,7.55859 -4.116098,0 -7.429687,-3.37088 -7.429687,-7.55859 V 79.517578 c 0,-4.187716 3.313589,-7.558594 7.429687,-7.558594 z"
       transform="matrix(0.26458333,0,0,0.26458333,79.369537,36.010523)"
       id="path1518"
       inkscape:connector-curvature="0"
       sodipodi:nodetypes="ccscccccccccsssccccscccsssssss" />
  </g>
</svg>
